# xmcd
#
# Track frame offsets:
#	183
#	17880
#	32708
#	46788
#	63690
#	78240
#	93943
#	107915
#	122128
#	132378
#	147065
#	159830
#	172368
#	189303
#
# Disc length: 2667 seconds
#
# Revision: 0
# Processed by: cddbd v1.5.2PL0 Copyright (c) Steve Scherf et al.
# Submitted via: dBpowerAMP V4.0
#
DISCID=bb0a690e
DTITLE=Jose Ortiz - Sus 14 Exitos Navidenos
DYEAR=1900
DGENRE=Latin
TTITLE0=AJAA ...TE AGARRE
TTITLE1=PROHIBIDO AMOR
TTITLE2=EL GAGO
TTITLE3=TODOS HACEN LENA
TTITLE4=TRAIGO 4 ROSAS
TTITLE5=BORICUA HASTA EL HUESO
TTITLE6=COMO UN MILLONARIO
TTITLE7=POR UNA MUJER
TTITLE8=CON LA PUYA DOBLA
TTITLE9=JIBARO ORGULLOSO
TTITLE10=CAMINAN LAS NUBES
TTITLE11=SI TU ME QUISIERAS
TTITLE12=SAN JUDAS TADEO
TTITLE13=REGRESA BORICUA
EXTD=Puerto Rican Latin Tipical Music
EXTT0=
EXTT1=
EXTT2=
EXTT3=
EXTT4=
EXTT5=
EXTT6=
EXTT7=
EXTT8=
EXTT9=
EXTT10=
EXTT11=
EXTT12=
EXTT13=
PLAYORDER=
